<?xml version="1.0" encoding="iso-8859-1"?>
<!-- Generator: Adobe Illustrator 25.4.1, SVG Export Plug-In . SVG Version: 6.00 Build 0)  -->
<svg version="1.1" id="Capa_1" xmlns="http://www.w3.org/2000/svg" xmlns:xlink="http://www.w3.org/1999/xlink" x="0px" y="0px"
	 viewBox="0 0 118.053 131.637" style="enable-background:new 0 0 118.053 131.637;" xml:space="preserve">
<g>
	<path style="fill:none;" d="M44.449,110.024c40.939,0,81.879,0,122.818,0c0-45.09,0-90.18,0-135.27c-40.939,0-81.879,0-122.818,0
		C44.449,19.844,44.449,64.934,44.449,110.024z M105.613-23.201c17.242,0,34.483-0.002,51.725,0.001
		c4.994,0.001,7.172,2.393,7.172,7.891c0.003,38.496,0.004,76.992-0.001,115.489c-0.001,5.332-2.223,7.797-7.027,7.798
		c-34.56,0.004-69.12,0.004-103.68,0c-4.829-0.001-7.056-2.448-7.056-7.764c-0.004-38.582-0.005-77.163,0.001-115.745
		c0.001-5.169,2.253-7.664,6.91-7.666C70.976-23.206,88.294-23.201,105.613-23.201z"/>
	<path d="M59.153,0.455c-17.318,0-34.637-0.005-51.955,0.003C2.54,0.46,0.289,2.956,0.288,8.125
		C0.283,46.706,0.283,85.288,0.287,123.869c0.001,5.317,2.227,7.764,7.056,7.764c34.56,0.004,69.12,0.004,103.68,0
		c4.804-0.001,7.026-2.466,7.027-7.798c0.004-38.496,0.004-76.992,0-115.489c0-5.498-2.178-7.889-7.172-7.891
		C93.637,0.453,76.395,0.455,59.153,0.455z M4.237,39.956c36.738,0,73.113,0,109.736,0c0.044,0.969,0.121,1.868,0.121,2.766
		c0.006,26.803,0.007,53.607,0.003,80.41c-0.001,3.8-0.266,4.098-3.655,4.099c-34.178,0.004-68.356,0.004-102.534,0
		c-3.404,0-3.668-0.294-3.669-4.081C4.235,96.346,4.237,69.543,4.237,42.74C4.237,41.897,4.237,41.055,4.237,39.956z
		 M114.099,35.276c-36.716,0-73.091,0-109.673,0c-0.065-0.765-0.178-1.492-0.18-2.219C4.233,24.863,4.227,16.668,4.243,8.474
		C4.25,5.31,4.628,4.866,7.407,4.865c34.484-0.011,68.969-0.01,103.453-0.001c2.834,0.001,3.227,0.431,3.233,3.532
		C114.111,17.264,114.099,26.133,114.099,35.276z"/>
	<path style="fill:none;" d="M50.697,16.3c0,1.098,0,1.941,0,2.784c0,26.803-0.002,53.607,0.002,80.41
		c0.001,3.787,0.264,4.081,3.669,4.081c34.178,0.004,68.356,0.004,102.534,0c3.39,0,3.655-0.299,3.655-4.099
		c0.004-26.803,0.003-53.607-0.003-80.41c0-0.899-0.077-1.797-0.121-2.766C123.809,16.3,87.434,16.3,50.697,16.3z M94.511,99.244
		c-2.228-0.098-2.902-1.621-2.256-3.69c2.313-7.399,4.654-14.787,6.994-22.175c5.213-16.463,10.421-32.929,15.668-49.38
		c0.503-1.576,0.713-4.043,2.98-3.261c2.482,0.856,1.25,2.978,0.713,4.675c-7.466,23.615-14.933,47.23-22.45,70.825
		C95.775,97.446,94.942,98.477,94.511,99.244z M69.137,62.062c6.89,7.664,13.608,15.136,20.325,22.611
		c0.487,0.542,1.232,1.034,1.366,1.676c0.194,0.931,0.234,2.233-0.224,2.887c-0.327,0.467-1.595,0.24-2.413,0.103
		c-0.372-0.062-0.679-0.648-1.003-1.01c-7.149-7.963-14.274-15.954-21.464-23.873c-1.521-1.675-1.624-3.007-0.066-4.725
		c7.078-7.801,14.081-15.687,21.171-23.474c0.62-0.681,1.734-1.303,2.527-1.185c1.644,0.244,1.883,2.343,0.458,3.964
		c-3.321,3.781-6.701,7.498-10.061,11.236C76.287,54.126,72.816,57.976,69.137,62.062z M142.116,62.058
		c-6.681-7.431-13.178-14.659-19.675-21.888c-0.487-0.542-1.224-1.019-1.381-1.666c-0.224-0.925-0.361-2.364,0.098-2.869
		c0.462-0.509,1.712-0.248,2.591-0.113c0.368,0.057,0.672,0.655,0.997,1.017c6.878,7.656,13.759,15.309,20.629,22.975
		c1.94,2.165,1.942,2.912,0.027,5.049c-7.085,7.908-14.181,15.804-21.273,23.704c-0.162,0.181-0.327,0.36-0.488,0.542
		c-0.979,1.113-2.076,1.606-3.178,0.326c-1.012-1.176-0.579-2.333,0.344-3.356c1.357-1.504,2.705-3.018,4.059-4.525
		C130.55,74.928,136.236,68.601,142.116,62.058z"/>
	<path style="fill:none;" d="M160.558,11.62c0-9.143,0.012-18.012-0.006-26.88c-0.006-3.101-0.399-3.531-3.233-3.532
		c-34.484-0.009-68.969-0.009-103.453,0.001c-2.779,0.001-3.157,0.444-3.163,3.608c-0.017,8.195-0.01,16.389,0.003,24.584
		c0.001,0.727,0.115,1.454,0.18,2.219C87.468,11.62,123.842,11.62,160.558,11.62z M64.452,5.189
		c-4.349,0.026-7.928-3.921-7.914-8.73c0.014-4.776,3.67-8.806,7.94-8.753c4.248,0.053,7.692,3.901,7.746,8.655
		C72.28,1.247,68.833,5.163,64.452,5.189z M91.858-3.425C91.82,1.45,88.287,5.267,83.89,5.182c-4.281-0.083-7.69-3.925-7.702-8.679
		c-0.011-4.809,3.584-8.821,7.88-8.793C88.394-12.262,91.896-8.276,91.858-3.425z M103.733,5.181
		c-4.403,0.042-7.87-3.79-7.871-8.701c-0.001-4.86,3.544-8.816,7.859-8.77c4.214,0.045,7.734,3.93,7.818,8.629
		C111.626,1.145,108.099,5.14,103.733,5.181z"/>
	<path d="M48.052,122.901c0.431-0.767,1.265-1.798,1.649-3.007c7.517-23.595,14.984-47.21,22.45-70.825
		c0.536-1.697,1.769-3.819-0.713-4.675c-2.268-0.782-2.478,1.685-2.98,3.261c-5.247,16.45-10.454,32.916-15.668,49.38
		c-2.34,7.388-4.681,14.777-6.994,22.175C45.149,121.279,45.823,122.803,48.052,122.901z"/>
	<path d="M22.678,85.718c3.679-4.086,7.15-7.935,10.616-11.79c3.36-3.738,6.74-7.455,10.061-11.236
		c1.424-1.621,1.186-3.72-0.458-3.964c-0.793-0.118-1.907,0.504-2.527,1.185c-7.09,7.787-14.093,15.673-21.171,23.474
		c-1.559,1.718-1.455,3.049,0.066,4.725c7.189,7.918,14.314,15.909,21.464,23.873c0.325,0.362,0.631,0.948,1.003,1.01
		c0.818,0.137,2.086,0.365,2.413-0.103c0.458-0.654,0.418-1.957,0.224-2.887c-0.134-0.642-0.879-1.134-1.366-1.676
		C36.286,100.854,29.567,93.382,22.678,85.718z"/>
	<path d="M95.657,85.714c-5.88,6.544-11.566,12.87-17.25,19.197c-1.354,1.507-2.702,3.021-4.059,4.525
		c-0.923,1.023-1.356,2.18-0.344,3.356c1.101,1.28,2.199,0.788,3.178-0.326c0.161-0.183,0.325-0.361,0.488-0.542
		c7.092-7.9,14.188-15.797,21.273-23.704c1.915-2.137,1.913-2.884-0.027-5.049c-6.869-7.666-13.751-15.318-20.629-22.975
		c-0.325-0.362-0.629-0.96-0.997-1.017c-0.878-0.136-2.128-0.396-2.591,0.113c-0.459,0.505-0.322,1.944-0.098,2.869
		c0.157,0.647,0.894,1.123,1.381,1.666C82.478,71.055,88.976,78.282,95.657,85.714z"/>
	<path d="M17.993,28.845c4.38-0.026,7.828-3.942,7.772-8.828c-0.054-4.754-3.498-8.602-7.746-8.655
		c-4.27-0.053-7.926,3.977-7.94,8.753C10.065,24.924,13.644,28.872,17.993,28.845z M17.863,24.501
		c-2.154-0.059-3.863-2.102-3.788-4.531c0.075-2.443,1.876-4.274,4.086-4.154c2.063,0.112,3.736,2.075,3.716,4.359
		C21.855,22.541,19.983,24.559,17.863,24.501z"/>
	<path d="M45.399,20.231c0.038-4.851-3.464-8.837-7.79-8.865c-4.296-0.028-7.892,3.984-7.88,8.793
		c0.011,4.754,3.421,8.596,7.702,8.679C41.827,28.923,45.361,25.106,45.399,20.231z M37.599,24.501
		c-2.172,0.016-3.906-1.949-3.887-4.406c0.018-2.368,1.625-4.209,3.737-4.282c2.179-0.075,3.996,1.833,4.04,4.242
		C41.532,22.44,39.743,24.485,37.599,24.501z"/>
	<path d="M57.274,28.838c4.365-0.041,7.892-4.036,7.806-8.842c-0.084-4.699-3.604-8.584-7.818-8.629
		c-4.315-0.046-7.86,3.91-7.859,8.77C49.404,25.048,52.871,28.88,57.274,28.838z M61.068,20.243
		c-0.048,2.439-1.863,4.362-4.02,4.257c-2.032-0.098-3.764-2.089-3.778-4.342c-0.014-2.368,1.813-4.368,3.971-4.346
		C59.455,15.835,61.117,17.759,61.068,20.243z"/>
	<path style="fill:none;" d="M64.322,0.845c2.12,0.058,3.992-1.96,4.013-4.325c0.021-2.285-1.653-4.247-3.716-4.359
		c-2.21-0.12-4.011,1.711-4.086,4.154C60.46-1.257,62.168,0.786,64.322,0.845z"/>
	<path style="fill:none;" d="M84.059,0.845c2.144-0.016,3.932-2.061,3.889-4.446c-0.044-2.409-1.861-4.317-4.04-4.242
		c-2.112,0.072-3.719,1.914-3.737,4.282C80.153-1.104,81.887,0.861,84.059,0.845z"/>
	<path style="fill:none;" d="M107.527-3.413c0.049-2.484-1.613-4.408-3.828-4.431c-2.158-0.022-3.985,1.978-3.971,4.346
		c0.014,2.252,1.746,4.243,3.778,4.342C105.664,0.949,107.479-0.974,107.527-3.413z"/>
</g>
</svg>
