<?xml version="1.0" encoding="iso-8859-1"?>
<!-- Generator: Adobe Illustrator 25.4.1, SVG Export Plug-In . SVG Version: 6.00 Build 0)  -->
<svg version="1.1" id="Capa_1" xmlns="http://www.w3.org/2000/svg" xmlns:xlink="http://www.w3.org/1999/xlink" x="0px" y="0px"
	 viewBox="0 0 267 263" style="enable-background:new 0 0 267 263;" xml:space="preserve">
<g>
	<path style="fill:none;" d="M100.9,217.006c89,0,178,0,267,0c0-87.667,0-175.333,0-263c-89,0-178,0-267,0
		C100.9,41.673,100.9,129.34,100.9,217.006z M233.867-42.019c37.482,0,74.965-0.005,112.447,0.003
		c10.857,0.002,15.591,4.652,15.592,15.341c0.007,74.847,0.008,149.694-0.001,224.541c-0.001,10.367-4.833,15.16-15.276,15.161
		c-75.131,0.008-150.263,0.008-225.394,0c-10.498-0.001-15.339-4.759-15.34-15.096c-0.009-75.013-0.01-150.026,0.001-225.039
		c0.002-10.05,4.897-14.902,15.023-14.906C158.569-42.028,196.218-42.019,233.867-42.019z"/>
	<path d="M133.467,3.975c-37.649,0-75.298-0.009-112.947,0.006C10.393,3.985,5.498,8.837,5.496,18.887
		C5.485,93.9,5.486,168.913,5.495,243.926c0.001,10.337,4.842,15.095,15.34,15.096c75.131,0.008,150.263,0.008,225.394,0
		c10.443-0.001,15.274-4.794,15.276-15.161c0.009-74.847,0.008-149.694,0.001-224.541c-0.001-10.689-4.735-15.339-15.592-15.341
		C208.432,3.971,170.949,3.975,133.467,3.975z M14.083,80.776c79.866,0,158.943,0,238.561,0c0.096,1.884,0.262,3.631,0.263,5.378
		c0.014,52.113,0.015,104.225,0.007,156.338c-0.001,7.387-0.578,7.968-7.946,7.969c-74.301,0.008-148.603,0.008-222.904,0
		c-7.401-0.001-7.974-0.571-7.976-7.935c-0.009-52.113-0.005-104.225-0.005-156.338C14.083,84.55,14.083,82.912,14.083,80.776z
		 M252.916,71.677c-79.82,0-158.895,0-238.424,0c-0.141-1.488-0.388-2.9-0.39-4.314c-0.028-15.932-0.042-31.865-0.006-47.797
		c0.014-6.151,0.835-7.014,6.877-7.015c74.967-0.021,149.934-0.02,224.901-0.002c6.162,0.001,7.015,0.838,7.029,6.866
		C252.942,36.657,252.916,53.9,252.916,71.677z"/>
	<path style="fill:none;" d="M114.483,34.782c0,2.136,0,3.774,0,5.412c0,52.113-0.004,104.225,0.005,156.338
		c0.001,7.364,0.574,7.934,7.976,7.935c74.301,0.008,148.603,0.008,222.904,0c7.369-0.001,7.945-0.581,7.946-7.969
		c0.009-52.113,0.007-104.225-0.007-156.338c0-1.747-0.167-3.494-0.263-5.378C273.426,34.782,194.348,34.782,114.483,34.782z
		 M209.732,196.048c-4.844-0.19-6.31-3.152-4.903-7.175c5.029-14.385,10.118-28.749,15.204-43.115
		c11.334-32.009,22.655-64.023,34.06-96.007c1.093-3.065,1.55-7.861,6.479-6.341c5.396,1.664,2.716,5.79,1.55,9.089
		c-16.23,45.914-32.464,91.828-48.805,137.703C212.481,192.552,210.669,194.556,209.732,196.048z M154.571,123.755
		c14.978,14.9,29.584,29.428,44.184,43.962c1.059,1.054,2.679,2.01,2.969,3.258c0.421,1.809,0.508,4.342-0.488,5.614
		c-0.711,0.908-3.467,0.466-5.246,0.2c-0.808-0.121-1.475-1.261-2.181-1.964c-15.542-15.483-31.031-31.02-46.661-46.415
		c-3.307-3.257-3.532-5.846-0.143-9.186c15.388-15.167,30.611-30.5,46.025-45.64c1.348-1.324,3.77-2.533,5.494-2.305
		c3.574,0.474,4.093,4.555,0.997,7.708c-7.219,7.351-14.567,14.578-21.872,21.845C170.115,108.327,162.569,115.811,154.571,123.755z
		 M313.224,123.747c-14.523-14.449-28.649-28.5-42.772-42.556c-1.059-1.054-2.662-1.981-3.003-3.239
		c-0.487-1.798-0.786-4.596,0.212-5.578c1.005-0.989,3.722-0.483,5.632-0.219c0.799,0.11,1.462,1.274,2.168,1.976
		c14.952,14.886,29.912,29.764,44.846,44.669c4.218,4.21,4.222,5.662,0.059,9.818c-15.403,15.375-30.829,30.727-46.247,46.087
		c-0.353,0.352-0.711,0.699-1.06,1.054c-2.128,2.165-4.514,3.122-6.908,0.633c-2.199-2.286-1.258-4.535,0.749-6.524
		c2.949-2.924,5.88-5.867,8.823-8.797C288.081,148.77,300.44,136.47,313.224,123.747z"/>
	<path style="fill:none;" d="M353.316,25.682c0-17.777,0.026-35.02-0.014-52.262c-0.014-6.028-0.867-6.865-7.029-6.866
		c-74.967-0.018-149.934-0.018-224.901,0.002c-6.041,0.002-6.863,0.864-6.877,7.015c-0.036,15.932-0.022,31.865,0.006,47.797
		c0.002,1.413,0.25,2.826,0.39,4.314C194.421,25.682,273.497,25.682,353.316,25.682z M144.387,13.179
		c-9.455,0.051-17.235-7.624-17.205-16.974c0.03-9.285,7.977-17.122,17.261-17.019c9.235,0.102,16.722,7.585,16.84,16.828
		C161.404,5.515,153.91,13.128,144.387,13.179z M203.966-3.569c-0.083,9.478-7.765,16.9-17.323,16.734
		c-9.307-0.161-16.719-7.631-16.743-16.873c-0.025-9.351,7.792-17.151,17.132-17.096C196.436-20.749,204.048-13.001,203.966-3.569z
		 M229.782,13.165c-9.573,0.081-17.109-7.369-17.111-16.916c-0.002-9.449,7.705-17.141,17.085-17.051
		c9.162,0.087,16.814,7.64,16.997,16.777C246.939,5.317,239.272,13.084,229.782,13.165z"/>
	<path d="M109.332,242.042c0.936-1.492,2.749-3.496,3.586-5.845c16.341-45.875,32.575-91.789,48.805-137.703
		c1.166-3.299,3.846-7.425-1.55-9.089c-4.93-1.52-5.386,3.276-6.479,6.341c-11.406,31.984-22.727,63.998-34.06,96.007
		c-5.086,14.365-10.175,28.73-15.204,43.115C103.023,238.89,104.489,241.852,109.332,242.042z"/>
	<path d="M54.171,169.749c7.999-7.944,15.544-15.428,23.078-22.924c7.305-7.267,14.653-14.494,21.872-21.845
		c3.096-3.153,2.577-7.233-0.997-7.708c-1.724-0.229-4.146,0.981-5.494,2.305c-15.414,15.14-30.637,30.473-46.025,45.64
		c-3.389,3.34-3.164,5.929,0.143,9.186c15.629,15.395,31.118,30.932,46.661,46.415c0.706,0.703,1.373,1.843,2.181,1.964
		c1.779,0.266,4.535,0.709,5.246-0.2c0.996-1.272,0.909-3.805,0.488-5.614c-0.29-1.248-1.91-2.204-2.969-3.258
		C83.755,199.177,69.148,184.649,54.171,169.749z"/>
	<path d="M212.824,169.741c-12.784,12.723-25.144,25.023-37.502,37.325c-2.943,2.93-5.874,5.873-8.823,8.797
		c-2.006,1.989-2.948,4.238-0.749,6.524c2.394,2.489,4.781,1.532,6.908-0.633c0.349-0.355,0.707-0.703,1.06-1.054
		c15.418-15.361,30.844-30.713,46.247-46.087c4.163-4.155,4.159-5.608-0.059-9.818c-14.933-14.905-29.893-29.783-44.846-44.669
		c-0.706-0.703-1.368-1.866-2.168-1.976c-1.91-0.264-4.627-0.77-5.632,0.219c-0.998,0.982-0.699,3.78-0.212,5.578
		c0.341,1.257,1.943,2.184,3.003,3.239C184.175,141.241,198.301,155.293,212.824,169.741z"/>
	<path d="M43.987,59.174c9.523-0.051,17.017-7.665,16.896-17.165c-0.117-9.243-7.605-16.725-16.84-16.828
		C34.76,25.078,26.812,32.914,26.782,42.2C26.752,51.55,34.531,59.225,43.987,59.174z M43.704,50.727
		c-4.683-0.114-8.397-4.086-8.236-8.809c0.163-4.749,4.078-8.309,8.882-8.076c4.486,0.218,8.123,4.034,8.078,8.476
		C52.382,46.917,48.312,50.839,43.704,50.727z"/>
	<path d="M103.566,42.426c0.082-9.432-7.531-17.181-16.934-17.236c-9.34-0.055-17.156,7.746-17.132,17.096
		c0.024,9.243,7.436,16.712,16.743,16.873C95.801,59.325,103.483,51.904,103.566,42.426z M86.61,50.728
		c-4.721,0.032-8.491-3.789-8.451-8.566c0.039-4.603,3.533-8.184,8.123-8.325c4.737-0.145,8.687,3.564,8.782,8.247
		C95.159,46.72,91.27,50.696,86.61,50.728z"/>
	<path d="M129.382,59.159c9.49-0.081,17.157-7.848,16.97-17.191c-0.183-9.136-7.835-16.689-16.997-16.777
		c-9.38-0.089-17.087,7.603-17.085,17.051C112.273,51.79,119.809,59.24,129.382,59.159z M137.629,42.449
		c-0.104,4.743-4.051,8.48-8.74,8.277c-4.417-0.191-8.184-4.062-8.213-8.441c-0.031-4.604,3.941-8.493,8.632-8.45
		C134.122,33.879,137.735,37.619,137.629,42.449z"/>
	<path style="fill:none;" d="M144.104,4.733c4.608,0.112,8.678-3.811,8.724-8.409c0.045-4.442-3.593-8.258-8.078-8.476
		c-4.804-0.233-8.719,3.327-8.882,8.076C135.707,0.647,139.421,4.619,144.104,4.733z"/>
	<path style="fill:none;" d="M187.01,4.733c4.66-0.031,8.549-4.007,8.455-8.644c-0.095-4.683-4.045-8.393-8.782-8.247
		c-4.591,0.141-8.085,3.721-8.123,8.325C178.519,0.944,182.289,4.765,187.01,4.733z"/>
	<path style="fill:none;" d="M238.029-3.545c0.106-4.83-3.507-8.57-8.321-8.614c-4.69-0.043-8.663,3.846-8.632,8.45
		c0.03,4.379,3.796,8.25,8.213,8.441C233.979,4.935,237.925,1.198,238.029-3.545z"/>
</g>
</svg>
